<?xml version="1.0" encoding="utf-8" ?>
<svg xmlns="http://www.w3.org/2000/svg" xmlns:xlink="http://www.w3.org/1999/xlink" width="1024" height="1024">
	<path transform="scale(1.6 1.6)" d="M231.548 74.2219C249.165 73.7214 294.83 72.1928 310.179 75.5204C335.342 80.9757 355.67 101.998 359.32 127.677C360.51 136.048 360.275 144.619 360.282 153.054L360.279 183.464C360.261 197.081 357.671 191.356 366.674 196.03C390.583 208.441 386.342 242.3 360.776 249.261C348.586 252.58 355.588 250.146 349.729 263.708C342.188 281.166 329.661 294.502 313.575 304.366C313.685 312.103 313.924 319.723 313.746 327.479C352.921 333.855 367.3 329.376 395.13 360.937C436.29 361.826 477.899 361.37 519.092 361.105C532.068 361.022 546.777 368.843 549.943 382.365C551.475 388.911 551.11 396.347 551.114 403.048L551.15 495.975C551.245 525.313 541.901 535.367 512.26 535.028L425.156 534.994L363.576 534.999C336.971 535.027 309.801 539.545 309.632 501.586C294.691 501.177 279.691 501.46 264.743 501.46L152.817 501.468C128.299 501.47 125.251 504.739 125.308 476.657L125.306 425.516C125.301 398.52 126.08 379.398 145.243 357.938C167.473 333.042 199.373 329.998 230.773 328.279C230.837 319.728 231.107 311.092 230.612 302.554C211.5 291.239 198 272.247 193.318 250.529C170.811 248.844 156.225 223.461 171.366 204.342C175.929 198.58 183.942 192.875 191.403 192.03C191.417 185.019 191.407 178.009 191.615 171C164.634 150.984 157.343 115.468 182.358 90.3061C197.451 75.1235 211.468 74.2771 231.548 74.2219Z"/>
	<path fill="white" transform="scale(1.6 1.6)" d="M355.309 212.575C361.392 214.958 365.109 221.271 360.302 227.199C358.748 228.453 357.151 229.17 355.337 229.956C355.234 224.161 355.271 218.37 355.309 212.575Z"/>
	<path fill="white" transform="scale(1.6 1.6)" d="M191.125 213.403L191.464 213.649C192.669 215.867 192.304 226.889 192.361 230.069C190.952 229.587 189.7 228.965 188.392 228.268C182.063 223.081 184.281 216.305 191.125 213.403Z"/>
	<path fill="#444445" transform="scale(1.6 1.6)" d="M341.749 351.134C346.881 351.572 366.354 358.627 370.22 361.299L369.141 361.316C359.23 361.106 349.295 361.229 339.381 361.22C340.017 357.834 340.933 354.481 341.749 351.134Z"/>
	<path fill="#323C58" transform="scale(1.6 1.6)" d="M237.013 346.707L237.268 346.719C240.45 349.297 254.025 368.351 256.736 372.16C251.912 374.404 246.995 376.468 242.11 378.573C238.897 379.862 235.795 381.497 232.681 383.011C230.034 371.941 228.128 360.158 225.566 348.876C229.277 347.72 233.175 347.246 237.013 346.707Z"/>
	<path fill="#323C58" transform="scale(1.6 1.6)" d="M308.322 346.462C312.603 346.766 316.846 347.68 321.163 347.98C319.883 359.883 316.202 370.706 311.484 381.647C308.637 380.82 305.846 379.839 303.047 378.867C297.579 376.722 292.107 374.677 286.47 373.018C291.595 366.165 302.333 352.715 308.322 346.462Z"/>
	<path fill="white" transform="scale(1.6 1.6)" d="M250.783 311.349C266.022 315.038 278.8 314.49 294.103 312.367C294.043 318.914 294.064 325.263 294.757 331.778C291.513 337.196 286.848 342.118 282.813 346.99C279.319 351.011 276.165 355.47 272.872 359.669C264.821 350.604 257.803 340.5 250.273 330.997C250.545 324.481 249.955 317.823 250.783 311.349Z"/>
	<path fill="#444445" transform="scale(1.6 1.6)" d="M280.401 93.9138C298.523 94.6019 312.685 91.5653 326.986 105.883C342.77 121.685 340.262 138.28 340.229 158.521L246.719 158.556C228.462 158.286 211.148 162.665 196.988 149.778C183.981 137.94 184.067 117.715 195.793 105.058C207.639 92.2719 222.437 94.0476 238.398 94.0497C252.37 94.0516 266.441 94.4071 280.401 93.9138Z"/>
	<path fill="white" transform="scale(1.6 1.6)" d="M211.462 178.301C239.362 178.996 267.392 178.448 295.306 178.453L316.919 178.41C329.753 178.352 335.016 176.349 335.315 192.419C335.489 201.774 335.288 211.156 335.297 220.514C335.32 244.188 335.615 257.461 317.315 276.444C287.269 305.338 236.923 299.223 217.973 260.548C210.011 244.297 211.471 232.25 211.475 214.865L211.462 178.301Z"/>
	<path fill="#717C89" transform="scale(1.6 1.6)" d="M203.58 351.691C208.373 350.805 212.314 384.298 216.401 397.907C220.976 413.143 235.202 403.124 244.535 399.034C253.143 395.262 262.073 391.258 270.914 388.078C283.698 391.986 295.801 398.031 308.701 401.856C309.297 408.356 309.07 414.961 309.069 421.483L309.055 457.985C309.052 465.839 308.768 473.781 309.455 481.609C295.632 481.247 281.757 481.474 267.927 481.473L204.531 481.532C200.54 481.717 200.89 479.7 200.959 476.111C201.109 468.292 202.715 424.335 198.728 419.923C192.741 413.3 183.101 417.117 181.718 425.274C180.657 431.529 181.34 438.638 181.351 445.024L181.323 481.35C169.335 481.764 157.265 481.48 145.271 481.448C145.678 464.922 145.371 448.33 145.374 431.797C145.378 408.997 144.117 390.874 159.305 372.22C171.788 356.888 184.823 353.689 203.58 351.691Z"/>
	<path fill="white" transform="scale(1.6 1.6)" d="M351.777 381.394C363.85 380.96 376.014 381.248 388.099 381.249L497.501 381.24C505.429 381.239 513.601 380.814 521.492 381.436C535.364 382.531 531.018 404.96 531.013 415.506L531.019 490.45C531.039 513.2 534.089 514.656 508.906 514.833C494.803 514.617 480.676 514.769 466.57 514.768L358.089 514.775C346.47 514.783 330.706 518.652 329.819 503.462C329.401 496.298 329.751 489.092 329.742 481.92L329.658 410.153C329.599 383.786 325.305 382.084 351.777 381.394Z"/>
	<path transform="scale(1.6 1.6)" d="M441.214 400.694C446.035 400.543 451.142 404.718 452.523 409.169C454.579 415.794 439.208 456.385 436.456 464.989C433.608 473.895 433.036 487.644 423.085 490.535C417.619 491.686 412.262 488.346 411.299 482.714C410.532 478.223 413.753 471.446 415.095 467.226L420.633 449.292C424.028 438.081 429.314 403.122 441.214 400.694Z"/>
	<path transform="scale(1.6 1.6)" d="M394.287 409.745C399.162 410.11 404.447 414.175 404.898 419.266C405.618 427.401 386.277 440.802 380.628 447.986C385.873 453.345 399.807 465.036 402.931 470.526C407.195 478.018 400.282 488.33 391.574 485.623C384.34 481.834 378.415 473.984 372.633 468.296C350.924 446.935 350.942 449.917 369.744 431.297L382.147 418.947C385.725 415.383 389.097 410.808 394.287 409.745Z"/>
	<path transform="scale(1.6 1.6)" d="M465.205 411.014C467.804 410.797 470.103 410.899 472.449 412.155C477.061 414.624 503.181 440.792 505.424 448.305C503.011 457.589 488.717 466.637 481.752 473.102C477.954 476.628 474.737 480.731 470.862 484.176C464.793 488.191 454.545 482.189 455.026 474.924C455.412 469.088 474.683 451.842 479.795 447.026C472.318 440.556 442.367 417.576 465.205 411.014Z"/>
</svg>
